<svg width="233" height="233" viewBox="0 0 233 233" fill="none" xmlns="http://www.w3.org/2000/svg">
<path d="M92.8375 9.67986V92.517H10.0004V9.67986H48.1205" stroke="white" stroke-width="18.2568" stroke-linecap="square"/>
<path d="M223 222.668H140.163V139.831H223V185.108" stroke="white" stroke-width="18.2568" stroke-linecap="square"/>
<path d="M169.751 18.8083H178.879V0.551467H169.751V9.67986V18.8083ZM140.175 9.67986V0.551467H131.046V9.67986H140.175ZM131.046 59.8252V68.9536H149.303V59.8252H140.175H131.046ZM213.871 30.3831V39.5115H232.128V30.3831H222.999H213.871ZM222.999 9.67986H232.128V0.551467H222.999V9.67986ZM202.296 0.551467H193.168V18.8083H202.296V9.67986V0.551467ZM232.128 62.9288V53.8004H213.871V62.9288H222.999H232.128ZM222.999 92.5048V101.633H232.128V92.5048H222.999ZM202.296 83.3765H193.168V101.633H202.296V92.5048V83.3765ZM140.174 83.3764H131.046V101.633H140.174V92.5048V83.3764ZM167.194 101.633H176.323V83.3764H167.194V92.5048V101.633ZM169.751 9.67986V0.551467H140.175V9.67986V18.8083H169.751V9.67986ZM140.175 9.67986H131.046V59.8252H140.175H149.303V9.67986H140.175ZM222.999 30.3831H232.128V9.67986H222.999H213.871V30.3831H222.999ZM222.999 9.67986V0.551467H202.296V9.67986V18.8083H222.999V9.67986ZM222.999 62.9288H213.871V92.5048H222.999H232.128V62.9288H222.999ZM222.999 92.5048V83.3765H202.296V92.5048V101.633H222.999V92.5048ZM140.174 92.5048V101.633H167.194V92.5048V83.3764H140.174V92.5048Z" fill="white"/>
<path d="M168.439 38.4616V65.4695H190.701" stroke="white" stroke-width="18.2568" stroke-linecap="square"/>
<path d="M197.97 38.3414V38.4631" stroke="white" stroke-width="18.2568" stroke-linecap="square"/>
<path d="M51.4106 50.5001V51.6808" stroke="white" stroke-width="18.2568" stroke-linecap="square"/>
<path d="M51.4106 180.657V181.838" stroke="white" stroke-width="18.2568" stroke-linecap="square"/>
<path d="M181.585 180.657V181.838" stroke="white" stroke-width="18.2568" stroke-linecap="square"/>
<path d="M10 222.668V139.831H92.8372V222.668L52.7818 223.216" stroke="white" stroke-width="18.2568" stroke-linecap="square"/>
</svg>
